<svg width="844" height="368" viewBox="0 0 844 368" fill="none" xmlns="http://www.w3.org/2000/svg">
<path d="M844 0.849889L582.472 0C499.424 0 426.089 36.5837 394.042 103.995C361.995 36.5837 288.621 0 205.613 0C94.0967 0 0 65.9047 0 184C0 302.095 94.0967 368 205.613 368C288.621 368 361.995 331.455 394.042 264.005C426.089 331.455 499.424 368 582.472 368C693.988 368 788.045 302.095 788.045 184C788.045 141.853 776.013 106.39 755.526 78.1508L844 0.849889ZM205.416 275.594C149.658 275.594 111.32 237.929 111.32 184C111.32 130.96 149.658 92.4443 205.416 92.4443C261.174 92.4443 299.356 130.96 299.356 184C299.356 237.929 261.174 275.594 205.416 275.594V275.594ZM582.275 275.594C526.517 275.594 488.178 237.929 488.178 184C488.178 130.96 526.517 92.4443 582.275 92.4443C638.033 92.4443 676.332 131.075 676.332 184C676.332 237.929 638.033 275.594 582.472 275.594H582.275Z" fill="#FF9F8A"/>
</svg>
