<svg width="873" height="292" viewBox="0 0 873 292" fill="none" xmlns="http://www.w3.org/2000/svg">
<g clip-path="url(#clip0_283_559)">
<path d="M181.364 0H140.147V208.925H181.364V0Z" fill="#FF9F8A"/>
<path d="M502.149 76.286L405.486 75.9717C374.791 75.9717 347.686 89.5028 335.842 114.436C323.997 89.5028 296.877 75.9717 266.197 75.9717C224.98 75.9717 190.201 100.348 190.201 144.027C190.201 187.707 224.98 212.083 266.197 212.083C296.877 212.083 323.997 198.566 335.842 173.619C347.686 198.566 374.791 212.083 405.486 212.083C446.704 212.083 481.468 187.707 481.468 144.027C481.468 128.439 477.021 115.322 469.449 104.877L502.149 76.286ZM266.124 177.905C245.515 177.905 231.345 163.974 231.345 144.027C231.345 124.409 245.515 110.164 266.124 110.164C286.733 110.164 300.845 124.409 300.845 144.027C300.845 163.974 286.733 177.905 266.124 177.905ZM405.414 177.905C384.805 177.905 370.635 163.974 370.635 144.027C370.635 124.409 384.805 110.164 405.414 110.164C426.022 110.164 440.178 124.452 440.178 144.027C440.178 163.974 426.022 177.905 405.486 177.905H405.414Z" fill="#FF9F8A"/>
<path d="M85.0069 196.265H50.8675C39.2406 196.265 34.7788 192.464 34.7788 186.448C34.9633 182.608 36.435 178.936 38.9645 176.004C47.344 179.411 56.3335 181.131 65.4011 181.062C103.348 181.062 125.25 158.6 125.25 128.595C125.228 122.879 124.246 117.207 122.344 111.806C121.544 108.748 118.361 103.747 115.847 100.061C114.481 98.1459 113.115 96.4027 111.792 94.8453L133.302 76.1703L67.7264 75.9989H65.3575H63.9041H63.221C26.829 76.9276 5.15942 100.589 5.15942 128.595C5.15942 140.94 8.69107 151.456 15.4492 159.929C7.41212 166.816 0 177.904 0 190.563C0 202.594 4.82515 212.082 14.5336 218.412V219.055C7.07785 226.327 1.29349 235.515 1.29349 247.86C1.29349 271.593 25.7535 291.225 68.9037 291.225H70.1971C120.105 291.225 140.38 266.535 140.38 239.944C140.38 217.469 122.998 196.265 85.0069 196.265ZM65.0377 108.262C78.2487 108.262 87.2014 117.435 87.2014 128.595C87.2014 139.754 78.1906 148.841 64.9796 148.841C51.7686 148.841 43.1502 139.597 43.1502 128.595C43.1502 117.592 51.8412 108.262 65.0377 108.262ZM71.4761 258.934H68.3078C52.8441 258.934 42.5398 251.332 42.5398 241.53C42.5322 238.671 43.2679 235.858 44.677 233.357C46.0862 230.857 48.1221 228.752 50.5914 227.242H80.1672C94.9914 227.242 99.1771 233.886 99.1771 240.844C99.1771 250.389 91.1255 258.934 71.4761 258.934Z" fill="#FF9F8A"/>
<path d="M630.175 0H594.423V86.102H592.824C585.746 80.0866 571.256 75.9715 557.406 75.9715C517.482 75.9715 490.115 105.406 490.115 144.027C490.115 185.464 518.456 212.083 553.22 212.083C571.503 212.083 583.842 206.768 594.437 198.338V208.925H635.654V0H630.175ZM594.423 163.974L593.754 164.588C587.99 172.807 579.155 178.453 569.175 180.296C559.195 182.139 548.878 180.029 540.473 174.426C532.069 168.824 526.257 160.182 524.304 150.385C522.352 140.588 524.417 130.43 530.05 122.123C535.682 113.816 544.426 108.035 554.376 106.039C564.325 104.043 574.674 105.993 583.167 111.466C591.66 116.938 597.609 125.489 599.717 135.255C601.826 145.021 599.922 155.21 594.423 163.602V163.974Z" fill="#FF9F8A"/>
</g>
<circle cx="664.978" cy="186.216" r="21.0018" fill="#FF9F8A"/>
<g clip-path="url(#clip1_283_559)">
<path d="M752.714 84.5362C733.653 84.5362 714.371 89.6339 701.294 98.9426L713.706 123.101C722.349 116.23 735.426 112.019 748.059 112.019C766.677 112.019 775.542 120.663 775.542 135.513H748.059C711.711 135.513 696.861 150.141 696.861 171.196C696.861 191.808 713.484 207.323 741.41 207.323C758.919 207.323 771.331 201.56 777.758 190.7V205.55H810.117V137.507C810.117 101.381 789.062 84.5362 752.714 84.5362ZM750.054 184.051C737.864 184.051 730.55 178.288 730.55 169.645C730.55 161.666 735.648 155.681 751.827 155.681H775.542V167.871C771.553 178.732 761.579 184.051 750.054 184.051ZM848.724 69.6866C861.579 69.6866 870.223 61.2644 870.223 49.7394C870.223 39.1008 861.579 31.1219 848.724 31.1219C835.869 31.1219 827.225 39.5441 827.225 50.4043C827.225 61.2644 835.869 69.6866 848.724 69.6866ZM831.436 205.55H866.011V86.3093H831.436V205.55Z" fill="#FF9F8A"/>
<path d="M701.294 98.9426L699.866 96.9361L698.13 98.1724L699.104 100.068L701.294 98.9426ZM713.706 123.101L711.515 124.226L712.888 126.897L715.238 125.029L713.706 123.101ZM775.542 135.513V137.975H778.005V135.513H775.542ZM777.759 190.7H780.221V181.704L775.64 189.446L777.759 190.7ZM777.759 205.55H775.296V208.012H777.759V205.55ZM810.118 205.55V208.012H812.58V205.55H810.118ZM775.542 155.681H778.005V153.219H775.542V155.681ZM775.542 167.871L777.854 168.72L778.005 168.309V167.871H775.542ZM752.714 82.0736C733.288 82.0736 713.465 87.2556 699.866 96.9361L702.722 100.949C715.276 92.0121 734.018 86.9988 752.714 86.9988V82.0736ZM699.104 100.068L711.515 124.226L715.896 121.975L703.485 97.8171L699.104 100.068ZM715.238 125.029C723.384 118.554 735.897 114.482 748.06 114.482V109.556C734.956 109.556 721.316 113.906 712.174 121.173L715.238 125.029ZM748.06 114.482C757.03 114.482 763.222 116.568 767.152 120.042C771.029 123.471 773.08 128.587 773.08 135.513H778.005C778.005 127.588 775.623 120.958 770.414 116.352C765.256 111.793 757.707 109.556 748.06 109.556V114.482ZM775.542 133.05H748.06V137.975H775.542V133.05ZM748.06 133.05C729.613 133.05 716.195 136.752 707.338 143.499C698.372 150.329 694.399 160.032 694.399 171.196H699.324C699.324 161.304 702.776 153.166 710.322 147.417C717.977 141.587 730.158 137.975 748.06 137.975V133.05ZM694.399 171.196C694.399 182.209 698.86 191.936 707.075 198.87C715.261 205.781 727.003 209.785 741.41 209.785V204.86C727.892 204.86 717.36 201.107 710.252 195.107C703.174 189.132 699.324 180.795 699.324 171.196H694.399ZM741.41 209.785C759.433 209.785 772.851 203.826 779.878 191.954L775.64 189.446C769.811 199.294 758.406 204.86 741.41 204.86V209.785ZM775.296 190.7V205.55H780.221V190.7H775.296ZM777.759 208.012H810.118V203.087H777.759V208.012ZM812.58 205.55V137.507H807.655V205.55H812.58ZM812.58 137.507C812.58 118.96 807.16 104.957 796.683 95.6346C786.259 86.3584 771.224 82.0736 752.714 82.0736V86.9988C770.552 86.9988 784.219 91.136 793.409 99.3138C802.547 107.445 807.655 119.928 807.655 137.507H812.58ZM750.054 181.588C744.315 181.588 740.013 180.228 737.211 178.121C734.478 176.065 733.013 173.193 733.013 169.644H728.088C728.088 174.74 730.28 179.071 734.251 182.057C738.153 184.992 743.604 186.513 750.054 186.513V181.588ZM733.013 169.644C733.013 166.226 734.07 163.554 736.607 161.635C739.282 159.612 743.965 158.144 751.827 158.144V153.219C743.51 153.219 737.554 154.743 733.636 157.707C729.58 160.775 728.088 165.084 728.088 169.644H733.013ZM751.827 158.144H775.542V153.219H751.827V158.144ZM773.08 155.681V167.871H778.005V155.681H773.08ZM773.231 167.022C769.682 176.683 760.816 181.588 750.054 181.588V186.513C762.343 186.513 773.424 180.78 777.854 168.72L773.231 167.022ZM831.436 205.55H828.974V208.012H831.436V205.55ZM866.012 205.55V208.012H868.474V205.55H866.012ZM866.012 86.3093H868.474V83.8467H866.012V86.3093ZM831.436 86.3093V83.8467H828.974V86.3093H831.436ZM848.724 72.1492C855.696 72.1492 861.7 69.858 865.982 65.8282C870.271 61.7909 872.685 56.1425 872.685 49.7393H867.76C867.76 54.8613 865.852 59.1865 862.606 62.2416C859.352 65.3041 854.607 67.224 848.724 67.224V72.1492ZM872.685 49.7393C872.685 37.4601 862.64 28.6593 848.724 28.6593V33.5845C860.518 33.5845 867.76 40.7415 867.76 49.7393H872.685ZM848.724 28.6593C834.709 28.6593 824.763 37.9926 824.763 50.4042H829.688C829.688 41.0955 837.029 33.5845 848.724 33.5845V28.6593ZM824.763 50.4042C824.763 62.8159 834.709 72.1492 848.724 72.1492V67.224C837.029 67.224 829.688 59.7129 829.688 50.4042H824.763ZM831.436 208.012H866.012V203.087H831.436V208.012ZM868.474 205.55V86.3093H863.549V205.55H868.474ZM866.012 83.8467H831.436V88.7719H866.012V83.8467ZM828.974 86.3093V205.55H833.899V86.3093H828.974Z" fill="#FF9F8A"/>
</g>
<defs>
<clipPath id="clip0_283_559">
<rect width="635.655" height="291.225" fill="white"/>
</clipPath>
<clipPath id="clip1_283_559">
<rect width="184.697" height="184.697" fill="white" transform="translate(688.303 27.0093)"/>
</clipPath>
</defs>
</svg>
